<?xml version="1.0" encoding="UTF-8" standalone="no"?>
<svg width="428px" height="371px" viewBox="0 0 428 371" version="1.1" xmlns="http://www.w3.org/2000/svg" xmlns:xlink="http://www.w3.org/1999/xlink" xmlns:sketch="http://www.bohemiancoding.com/sketch/ns">
    <!-- Generator: Sketch 3.4.2 (15857) - http://www.bohemiancoding.com/sketch -->
    <title>logo</title>
    <desc>Created with Sketch.</desc>
    <defs></defs>
    <g id="assets" stroke="none" stroke-width="1" fill="none" fill-rule="evenodd" sketch:type="MSPage">
        <g id="512---Play-Store" sketch:type="MSArtboardGroup" transform="translate(-42.000000, -71.000000)">
            <g id="logo" sketch:type="MSLayerGroup" transform="translate(42.000000, 71.000000)">
                <path d="M428,119 C428,150.79 415.62,180.67 393.15,203.15 C390.8,205.5 388.36,207.74 385.85,209.86 C370.85,150.18 316.83,106 252.5,106 C248.81,106 245.16,106.15 241.54,106.43 C233.33,88.19 221.07,72.15 205.91,59.47 C211.05,50.58 217.4,42.31 224.85,34.85 C247.33,12.38 277.21,0 309,0 C340.79,0 370.67,12.38 393.15,34.85 C415.62,57.33 428,87.21 428,119" id="Fill-1" fill="#6F7E8C" sketch:type="MSShapeGroup"></path>
                <path d="M232.12,107.5 C217.17,109.72 203.01,114.35 190.03,120.98 C189.03,121.49 188.04,122.01 187.05,122.54 C144.14,145.82 115,191.25 115,243.5 C115,256.86 116.91,269.78 120.47,281.99 C53.9,281.17 0,226.76 0,160 C0,92.73 54.73,38 122,38 C151.3,38 178.21,48.37 199.26,65.64 C200.05,66.29 200.83,66.95 201.6,67.61 C214.33,78.6 224.78,92.17 232.12,107.5" id="Fill-2" fill="#D56794" sketch:type="MSShapeGroup"></path>
                <path d="M380,243.5 C380,277.56 366.74,309.57 342.66,333.66 C318.57,357.74 286.56,371 252.5,371 C218.44,371 186.43,357.74 162.34,333.66 C149.81,321.13 140.22,306.45 133.9,290.46 C133.32,289.02 132.77,287.56 132.25,286.09 C131.74,284.63 131.25,283.16 130.8,281.68 C126.98,269.48 125,256.64 125,243.5 C125,209.44 138.26,177.43 162.34,153.34 C170.09,145.59 178.66,138.96 187.86,133.54 C188.8,132.98 189.74,132.44 190.7,131.92 C204.72,124.12 220.1,119.07 236.19,117.03 C237.73,116.83 239.28,116.66 240.83,116.53 C242.37,116.38 243.92,116.27 245.47,116.2 C247.8,116.06 250.15,116 252.5,116 C286.56,116 318.57,129.26 342.66,153.34 C360.26,170.95 372.08,192.79 377.16,216.58 C377.39,217.63 377.61,218.69 377.8,219.76 C379.26,227.51 380,235.45 380,243.5" id="Fill-5" fill="#476CA1" sketch:type="MSShapeGroup"></path>
            </g>
        </g>
    </g>
</svg>