<?xml version="1.0" encoding="UTF-8" standalone="no"?>
<svg width="250px" height="36px" viewBox="0 0 250 36" version="1.1" xmlns="http://www.w3.org/2000/svg" xmlns:xlink="http://www.w3.org/1999/xlink" xmlns:sketch="http://www.bohemiancoding.com/sketch/ns">
    <!-- Generator: Sketch 3.4.2 (15857) - http://www.bohemiancoding.com/sketch -->
    <title>title</title>
    <desc>Created with Sketch.</desc>
    <defs></defs>
    <g id="Page-2" stroke="none" stroke-width="1" fill="none" fill-rule="evenodd" sketch:type="MSPage">
        <g id="profile" sketch:type="MSArtboardGroup" transform="translate(-24.000000, -22.000000)">
            <g id="title" sketch:type="MSLayerGroup" transform="translate(24.000000, 22.000000)">
                <path d="M42,11.5471698 C42,14.6319137 40.7851402,17.5313208 38.5801402,19.7126685 C38.3495327,19.9407008 38.1100935,20.1580593 37.863785,20.3637736 C36.3918224,14.5727224 31.0907944,10.2857143 24.7780374,10.2857143 C24.4159346,10.2857143 24.057757,10.3002695 23.7025234,10.3274394 C22.8968692,8.55752022 21.693785,7.00107817 20.2061215,5.77067385 C20.710514,4.90803235 21.3336449,4.10555256 22.0647196,3.38167116 C24.2707009,1.2012938 27.2028505,0 30.3224299,0 C33.4420093,0 36.3741589,1.2012938 38.5801402,3.38167116 C40.7851402,5.56301887 42,8.46242588 42,11.5471698" id="Fill-1" fill="#6F7E8C" sketch:type="MSShapeGroup"></path>
                <path d="M22.7781308,10.4312668 C21.3110748,10.6466846 19.9215421,11.0959569 18.6478037,11.7392992 C18.5496729,11.7887871 18.4525234,11.8392453 18.3553738,11.8906739 C14.1445794,14.1496496 11.2850467,18.5579515 11.2850467,23.6280323 C11.2850467,24.9244205 11.4724766,26.1781132 11.8218224,27.3629111 C5.28925234,27.2833423 0,22.0036658 0,15.5256065 C0,8.9980593 5.37070093,3.68733154 11.9719626,3.68733154 C14.8471963,3.68733154 17.4878972,4.69358491 19.5535514,6.36938005 C19.6310748,6.43245283 19.7076168,6.49649596 19.7831776,6.56053908 C21.0323832,7.62695418 22.0578505,8.94371968 22.7781308,10.4312668" id="Fill-2" fill="#D56794" sketch:type="MSShapeGroup"></path>
                <path d="M37.2897196,23.6280323 C37.2897196,26.9330458 35.9885047,30.0391375 33.625514,32.3767116 C31.2615421,34.7133154 28.1203738,36 24.7780374,36 C21.4357009,36 18.2945327,34.7133154 15.9305607,32.3767116 C14.7009813,31.1608625 13.7599065,29.7363881 13.1397196,28.1847978 C13.0828037,28.0450674 13.0288318,27.9033962 12.9778037,27.7607547 C12.927757,27.6190836 12.8796729,27.476442 12.835514,27.3328302 C12.4606542,26.1490027 12.2663551,24.9030728 12.2663551,23.6280323 C12.2663551,20.3230189 13.5675701,17.2169272 15.9305607,14.8793531 C16.6910748,14.1273315 17.5320561,13.4839892 18.4348598,12.9580593 C18.5271028,12.9037197 18.6193458,12.8513208 18.7135514,12.8008625 C20.0893458,12.0439892 21.5985981,11.5539623 23.1775234,11.3560108 C23.3286449,11.3366038 23.4807477,11.3201078 23.6328505,11.3074933 C23.783972,11.292938 23.9360748,11.2822642 24.0881776,11.2754717 C24.3168224,11.2618868 24.5474299,11.2560647 24.7780374,11.2560647 C28.1203738,11.2560647 31.2615421,12.5427493 33.625514,14.8793531 C35.3526168,16.5881402 36.5125234,18.7073854 37.011028,21.0158491 C37.0335981,21.1177358 37.0551869,21.220593 37.0738318,21.3244205 C37.2171028,22.076442 37.2897196,22.8469003 37.2897196,23.6280323" id="Fill-5" fill="#476CA1" sketch:type="MSShapeGroup"></path>
                <path d="M235.370049,30.5449531 L235.370049,9.5256762 L227.69496,9.5256762 L227.69496,4.57175534 L249.568963,4.57175534 L249.568963,9.5256762 L241.893874,9.5256762 L241.893874,30.5449531 L235.370049,30.5449531 Z M225.113339,30.5449531 L218.833721,30.5449531 L208.821219,12.4387212 L208.821219,30.5449531 L202.855582,30.5449531 L202.855582,4.57175534 L210.862095,4.57175534 L219.147702,19.4509613 L219.147702,4.57175534 L225.113339,4.57175534 L225.113339,30.5449531 Z M180.876919,30.5449531 L180.876919,4.57175534 L198.442406,4.57175534 L198.442406,9.5256762 L187.365858,9.5256762 L187.365858,14.0783992 L197.570237,14.0783992 L197.570237,19.0323201 L187.365858,19.0323201 L187.365858,25.5910322 L198.442406,25.5910322 L198.442406,30.5449531 L180.876919,30.5449531 Z M177.771997,30.5449531 L160.433274,30.5449531 L160.433274,4.57175534 L166.957099,4.57175534 L166.957099,25.5910322 L177.771997,25.5910322 L177.771997,30.5449531 Z M133.186709,30.5449531 L141.960731,4.57175534 L149.077631,4.57175534 L157.851653,30.5449531 L151.135951,30.5449531 L149.513716,25.2421646 L141.350213,25.2421646 L139.727978,30.5449531 L133.186709,30.5449531 Z M133.570464,4.57175534 L124.639451,30.5449531 L117.836532,30.5449531 L108.90552,4.57175534 L115.673552,4.57175534 L121.325209,22.1721291 L126.976865,4.57175534 L133.570464,4.57175534 Z M108.058546,17.5360654 C108.058546,21.7341273 106.936367,25.0367082 104.691973,27.4439072 C102.44758,29.8511061 99.3717611,31.0546875 95.4644237,31.0546875 C91.5454573,31.0546875 88.4696382,29.8365701 86.2368739,27.4002987 C84.0041097,24.9640273 82.8877444,21.6759824 82.8877444,17.5360654 C82.8877444,13.3612615 84.0041097,10.0615878 86.2368739,7.63694542 C88.4696382,5.21230302 91.5454573,4 95.4644237,4 C99.3717611,4 102.44758,5.20648861 104.691973,7.61950203 C106.936367,10.0325155 108.058546,13.3380035 108.058546,17.5360654 Z M102.528994,17.5813992 C102.528994,19.9469506 101.896661,21.8079106 100.631975,23.1643348 C99.3672899,24.5207591 97.6341071,25.1989611 95.432375,25.1989611 C93.2240901,25.1989611 91.4909073,24.5125683 90.2327747,23.1397621 C88.9746421,21.7669559 88.3455852,19.9141868 88.3455852,17.5813992 C88.3455852,15.2289532 88.9746421,13.3696315 90.2327747,12.003378 C91.4909073,10.6371246 93.2240901,9.95400817 95.432375,9.95400817 C97.6341071,9.95400817 99.3672899,10.6338483 100.631975,11.9935489 C101.896661,13.3532496 102.528994,15.2158477 102.528994,17.5813992 Z M71.7162264,31.0508112 C67.820518,31.0508112 64.7272556,29.8733946 62.4363465,27.5185261 C60.1454374,25.1636576 59,21.8523551 59,17.5845193 C59,13.4678602 60.1483446,10.1856298 62.4450682,7.73772941 C64.7417918,5.28982905 67.8379614,4.06589723 71.7336698,4.06589723 C72.7686491,4.06589723 73.6989535,4.12404126 74.5246111,4.24033106 C75.3502687,4.35662086 76.1410275,4.51942415 76.8969113,4.72874579 C77.4899893,4.9031805 78.135388,5.14157102 78.8331268,5.44392451 C79.5308656,5.746278 80.0948627,6.00792613 80.525135,6.22887676 L80.525135,12.4212778 L79.8622864,12.4212778 C79.548304,12.1421823 79.1529246,11.8078541 78.6761364,11.4182833 C78.1993482,11.0287124 77.6586087,10.6478691 77.0539017,10.2757417 C76.4491947,9.90361431 75.7834456,9.58672935 75.0566343,9.32507729 C74.3298231,9.06342523 73.5710435,8.93260117 72.7802728,8.93260117 C71.8383254,8.93260117 70.9748866,9.08086844 70.1899304,9.37740744 C69.4049742,9.67394644 68.6578234,10.1885211 67.9484556,10.9211469 C67.2972327,11.5839987 66.7652149,12.4794168 66.3523861,13.6074279 C65.9395573,14.735439 65.733146,16.0669373 65.733146,17.6019627 C65.733146,19.2183909 65.9482789,20.576054 66.3785511,21.6749927 C66.8088234,22.7739313 67.3728205,23.6606278 68.0705593,24.3351086 C68.7450402,24.9863315 69.4980054,25.4572982 70.3294775,25.7480227 C71.1609495,26.0387472 71.989502,26.1841073 72.8151596,26.1841073 C73.6757041,26.1841073 74.4955349,26.0416544 75.2746766,25.7567444 C76.0538183,25.4718343 76.7108458,25.1549494 77.2457789,24.80608 C77.827228,24.4455816 78.3388954,24.0792742 78.7807967,23.7071468 C79.2226979,23.3350195 79.6064485,23.0035985 79.93206,22.712874 L80.525135,22.712874 L80.525135,28.8180581 C80.0483468,29.0390088 79.4959785,29.2919353 78.8680136,29.5768453 C78.2400486,29.8617553 77.5946499,30.103053 76.931798,30.3007457 C76.1177694,30.5449543 75.3560826,30.7310152 74.6467148,30.858934 C73.937347,30.9868528 72.9605273,31.0508112 71.7162264,31.0508112 Z" id="Path" fill="#FAFAFA" sketch:type="MSShapeGroup"></path>
            </g>
        </g>
    </g>
</svg>